<mxfile host="app.diagrams.net" modified="2023-06-02T09:58:02.296Z" agent="Mozilla/5.0 (Windows NT 10.0; Win64; x64) AppleWebKit/537.36 (KHTML, like Gecko) Chrome/113.0.0.0 Safari/537.36" etag="vg7PDZOgMIJYNidwqtNH" version="21.1.8" type="device">
  <diagram name="PÃ¡gina-1" id="fRxYpWFWI3TABBfFrbz9">
    <mxGraphModel dx="1434" dy="739" grid="1" gridSize="10" guides="1" tooltips="1" connect="1" arrows="1" fold="1" page="1" pageScale="1" pageWidth="827" pageHeight="1169" math="1" shadow="0">
      <root>
        <mxCell id="0" />
        <mxCell id="1" parent="0" />
        <mxCell id="B_Le31ezV2yMH2FOFBGa-6" value="$$\varphi_A$$" style="shape=trapezoid;perimeter=trapezoidPerimeter;whiteSpace=wrap;html=1;fixedSize=1;fillColor=#d5e8d4;strokeColor=#82b366;size=20;" parent="1" vertex="1">
          <mxGeometry x="140" y="340" width="120" height="60" as="geometry" />
        </mxCell>
        <mxCell id="B_Le31ezV2yMH2FOFBGa-7" value="$$\gamma_A$$" style="shape=trapezoid;perimeter=trapezoidPerimeter;whiteSpace=wrap;html=1;fixedSize=1;fillColor=#d5e8d4;strokeColor=#82b366;size=-10;" parent="1" vertex="1">
          <mxGeometry x="160" y="170" width="80" height="30" as="geometry" />
        </mxCell>
        <mxCell id="B_Le31ezV2yMH2FOFBGa-12" value="Train set A" style="shape=cylinder3;whiteSpace=wrap;html=1;boundedLbl=1;backgroundOutline=1;size=15;fillColor=#ffffff;strokeColor=#82b366;" parent="1" vertex="1">
          <mxGeometry x="140" y="410" width="120" height="60" as="geometry" />
        </mxCell>
        <mxCell id="B_Le31ezV2yMH2FOFBGa-13" value="Task&lt;br&gt;Loss A" style="ellipse;whiteSpace=wrap;html=1;aspect=fixed;fillColor=#FFFFFF;strokeColor=#82b366;" parent="1" vertex="1">
          <mxGeometry x="175" y="110" width="50" height="50" as="geometry" />
        </mxCell>
        <mxCell id="B_Le31ezV2yMH2FOFBGa-22" value="Gradient" style="endArrow=classic;html=1;rounded=0;strokeColor=#FF0000;" parent="1" edge="1">
          <mxGeometry width="50" height="50" relative="1" as="geometry">
            <mxPoint x="119" y="160" as="sourcePoint" />
            <mxPoint x="120" y="400" as="targetPoint" />
          </mxGeometry>
        </mxCell>
        <mxCell id="OQAexkaJsbmmNymDWaih-5" value="" style="endArrow=classic;html=1;curved=1;" parent="1" edge="1">
          <mxGeometry width="50" height="50" relative="1" as="geometry">
            <mxPoint x="210" y="250" as="sourcePoint" />
            <mxPoint x="310" y="240" as="targetPoint" />
            <Array as="points">
              <mxPoint x="220" y="222" />
              <mxPoint x="280" y="210" />
            </Array>
          </mxGeometry>
        </mxCell>
        <mxCell id="OQAexkaJsbmmNymDWaih-6" value="" style="endArrow=classic;html=1;rounded=0;" parent="1" edge="1">
          <mxGeometry width="50" height="50" relative="1" as="geometry">
            <mxPoint x="199.5" y="250" as="sourcePoint" />
            <mxPoint x="199.5" y="210" as="targetPoint" />
          </mxGeometry>
        </mxCell>
        <mxCell id="OQAexkaJsbmmNymDWaih-9" value="&lt;p style=&quot;line-height: 0%;&quot;&gt;&lt;font style=&quot;font-size: 12px;&quot;&gt;Topo loss&lt;/font&gt;&lt;/p&gt;$$L^2$$" style="ellipse;fontSize=12;align=center;whiteSpace=wrap;html=1;verticalAlign=top;labelPosition=center;verticalLabelPosition=middle;spacingTop=-3;fillColor=default;strokeColor=#82b366;" parent="1" vertex="1">
          <mxGeometry x="300" y="240" width="120" height="50" as="geometry" />
        </mxCell>
        <mxCell id="B_Le31ezV2yMH2FOFBGa-11" value="$$\hat{T}_{rel}(\mathcal{A})$$" style="rounded=1;whiteSpace=wrap;html=1;dashed=1;fillColor=#ffe6cc;strokeColor=#d79b00;" parent="1" vertex="1">
          <mxGeometry x="160" y="260" width="80" height="30" as="geometry" />
        </mxCell>
        <mxCell id="ORQRtGDnohv92dud4GVu-1" value="" style="endArrow=classic;html=1;curved=1;entryX=0.05;entryY=0.24;entryDx=0;entryDy=0;entryPerimeter=0;strokeColor=#FF0000;" edge="1" parent="1">
          <mxGeometry width="50" height="50" relative="1" as="geometry">
            <mxPoint x="300" y="240" as="sourcePoint" />
            <mxPoint x="220" y="250" as="targetPoint" />
            <Array as="points">
              <mxPoint x="250" y="200" />
            </Array>
          </mxGeometry>
        </mxCell>
        <mxCell id="ORQRtGDnohv92dud4GVu-2" value="" style="endArrow=classic;html=1;rounded=0;" edge="1" parent="1">
          <mxGeometry width="50" height="50" relative="1" as="geometry">
            <mxPoint x="199.5" y="335" as="sourcePoint" />
            <mxPoint x="199.5" y="295" as="targetPoint" />
          </mxGeometry>
        </mxCell>
        <mxCell id="ORQRtGDnohv92dud4GVu-3" value="" style="endArrow=classic;html=1;curved=1;" edge="1" parent="1">
          <mxGeometry width="50" height="50" relative="1" as="geometry">
            <mxPoint x="210" y="330" as="sourcePoint" />
            <mxPoint x="300" y="280" as="targetPoint" />
            <Array as="points">
              <mxPoint x="260" y="290" />
            </Array>
          </mxGeometry>
        </mxCell>
        <mxCell id="ORQRtGDnohv92dud4GVu-4" value="" style="endArrow=classic;html=1;curved=1;strokeColor=#FF0000;" edge="1" parent="1">
          <mxGeometry width="50" height="50" relative="1" as="geometry">
            <mxPoint x="300" y="290" as="sourcePoint" />
            <mxPoint x="230" y="330" as="targetPoint" />
            <Array as="points">
              <mxPoint x="270" y="300" />
            </Array>
          </mxGeometry>
        </mxCell>
      </root>
    </mxGraphModel>
  </diagram>
</mxfile>
